<svg xmlns="http://www.w3.org/2000/svg" width="32.001" height="32.001">
  <path d="M24.66 23.699a4.28 4.28 0 00-4.278-4.279h-1.646v-.852a6.727 6.727 0 003.418-3.497 2.794 2.794 0 00-.142-5.55 6.716 6.716 0 00-1.467-1.977l2.279-6.524a.767.767 0 10-1.45-.506l-2.125 6.082a6.667 6.667 0 00-3.242-.854h-.016a6.69 6.69 0 00-3.24.854L10.627.514a.768.768 0 10-1.45.506l2.279 6.524a6.734 6.734 0 00-1.467 1.977 2.8 2.8 0 00-2.539 2.786 2.8 2.8 0 002.396 2.767 6.728 6.728 0 003.418 3.496v.852h-1.645a4.277 4.277 0 00-.072 8.554v4.025h3.292v-4.023h2.324v4.023h3.291v-4.024a4.28 4.28 0 004.206-4.278zm-3.687-2.428l.993.994a.72.72 0 01-.993-.994zm0 1.911l.993.994a.721.721 0 01-.993-.994zm-9.847-10.728a4.905 4.905 0 014.866-4.9h.016a4.907 4.907 0 014.867 4.9 4.907 4.907 0 01-4.867 4.899h-.016a4.905 4.905 0 01-4.866-4.899zM21.58 26.309a.721.721 0 01-.607-1.108l.993.992a.702.702 0 01-.386.116zm.605-.332l-.992-.995a.72.72 0 011.109.608.745.745 0 01-.117.387zm0-2.02l-.992-.993a.721.721 0 011.109.606.734.734 0 01-.117.387zm0-1.911l-.992-.994a.722.722 0 011.109.608.73.73 0 01-.117.386z"/><path d="M20.107 12.454a4.135 4.135 0 00-4.106-4.131 4.135 4.135 0 00-4.106 4.131 4.136 4.136 0 004.106 4.131 4.137 4.137 0 004.106-4.131zm-7.061 0a2.98 2.98 0 012.947-2.979v-.001h.016v.001a2.979 2.979 0 010 5.958h-.016a2.98 2.98 0 01-2.947-2.979z" />
</svg>